<svg width="198" height="199" viewBox="0 0 198 199" fill="none" xmlns="http://www.w3.org/2000/svg">
<path d="M99 0C44.4108 0 0 44.6359 0 99.5C0 154.364 44.4108 199 99 199C153.589 199 198 154.364 198 99.5C198 44.6359 153.589 0 99 0ZM99 179.742C54.9771 179.742 19.1611 143.746 19.1611 99.5C19.1611 55.2544 54.9771 19.2579 99 19.2579C143.023 19.2579 178.839 55.2548 178.839 99.5C178.839 143.745 143.023 179.742 99 179.742Z" fill="white"/>
<path d="M133.742 63.8044L86.2259 111.56L61.0644 86.2724L47.5161 99.8891L86.2259 138.795L147.29 77.4212L133.742 63.8044Z" fill="white"/>
</svg>
