<svg width="258" height="81" viewBox="0 0 258 81" fill="none" xmlns="http://www.w3.org/2000/svg">
<path d="M28.2173 26.5469C28.3272 24.9953 27.9152 23.7938 26.9815 22.9425C26.0616 22.0911 24.6061 21.6655 22.6151 21.6655C21.2969 21.6655 20.1709 21.8371 19.2372 22.1804C18.3035 22.5099 17.5689 22.9768 17.0334 23.581C16.4979 24.1714 16.1615 24.858 16.0241 25.6406C15.9006 26.2585 15.9349 26.8078 16.1271 27.2884C16.3194 27.7689 16.6558 28.1946 17.1364 28.5653C17.6307 28.9361 18.2417 29.2588 18.9695 29.5334C19.7109 29.808 20.5417 30.0483 21.4616 30.2543L24.9219 31.0781C26.9266 31.5312 28.6636 32.1354 30.1328 32.8906C31.6158 33.6321 32.8172 34.5315 33.7372 35.5888C34.6572 36.6323 35.2888 37.8338 35.6321 39.1932C35.9754 40.5526 36.0028 42.0767 35.7145 43.7656C35.2751 46.4295 34.2247 48.7157 32.5632 50.6243C30.9155 52.5329 28.7597 53.9953 26.0959 55.0114C23.4458 56.0275 20.3632 56.5355 16.848 56.5355C13.3329 56.5355 10.3464 56.0069 7.88849 54.9496C5.44437 53.8786 3.67306 52.2652 2.57457 50.1094C1.47609 47.9536 1.18087 45.2348 1.68892 41.9531H11.4311C11.2801 43.3125 11.4517 44.4453 11.946 45.3516C12.4541 46.2578 13.2367 46.9444 14.294 47.4112C15.3513 47.8781 16.6283 48.1115 18.125 48.1115C19.4981 48.1115 20.6996 47.9261 21.7294 47.5554C22.773 47.1847 23.6037 46.6697 24.2216 46.0107C24.8532 45.3516 25.2377 44.5964 25.375 43.745C25.5123 42.9624 25.3819 42.2827 24.9837 41.706C24.5992 41.1293 23.9401 40.6281 23.0064 40.2024C22.0864 39.7768 20.8781 39.3923 19.3814 39.049L15.1591 38.0192C11.6714 37.1679 9.02817 35.8085 7.2294 33.9411C5.44437 32.0736 4.81274 29.5402 5.33452 26.3409C5.77391 23.7183 6.85866 21.4252 8.58878 19.4616C10.3326 17.4981 12.5365 15.974 15.2003 14.8892C17.8778 13.7907 20.8232 13.2415 24.0362 13.2415C27.3042 13.2415 30.0504 13.7976 32.2749 14.9098C34.513 16.0083 36.1264 17.5599 37.1151 19.5646C38.1174 21.5556 38.4058 23.883 37.9801 26.5469H28.2173Z" fill="#0EFFD4"/>
<path d="M53.5305 56.5973C50.1939 56.5973 47.4408 55.9107 45.2713 54.5376C43.1155 53.1645 41.6051 51.2559 40.7401 48.8118C39.875 46.3539 39.7171 43.5116 40.2663 40.2848C40.7881 37.0443 41.8935 34.2019 43.5824 31.7578C45.2713 29.3 47.4271 27.3845 50.0497 26.0114C52.6723 24.6383 55.6383 23.9517 58.9474 23.9517C61.8722 23.9517 64.33 24.4804 66.321 25.5376C68.3258 26.5949 69.7744 28.0916 70.6669 30.0277C71.5732 31.95 71.8409 34.2088 71.4702 36.804H62.0575C62.1399 35.1974 61.8104 33.9342 61.0689 33.0142C60.3274 32.0805 59.2495 31.6136 57.8352 31.6136C56.6406 31.6136 55.5421 31.9432 54.5398 32.6023C53.5511 33.2476 52.7067 34.2088 52.0064 35.4858C51.3198 36.7491 50.8255 38.3144 50.5234 40.1818C50.2214 42.0492 50.2008 43.6283 50.4616 44.919C50.7363 46.196 51.2512 47.1641 52.0064 47.8232C52.7753 48.4685 53.7502 48.7912 54.9311 48.7912C55.8648 48.7912 56.7299 48.5921 57.5263 48.1939C58.3227 47.7957 59.0161 47.2121 59.6065 46.4432C60.197 45.6605 60.657 44.7131 60.9865 43.6009H70.3786C69.843 46.2235 68.8063 48.5097 67.2685 50.4595C65.7443 52.3956 63.8151 53.906 61.4808 54.9908C59.1465 56.0618 56.4964 56.5973 53.5305 56.5973ZM86.5932 37.9574L83.5861 56H73.5144L80.5172 13.8182H90.2594L87.5819 30.1719H87.932C88.9481 28.2221 90.3624 26.6979 92.1749 25.5994C93.9874 24.5009 96.0882 23.9517 98.4775 23.9517C100.674 23.9517 102.514 24.446 103.997 25.4347C105.48 26.4096 106.531 27.7895 107.149 29.5746C107.767 31.3596 107.876 33.4467 107.478 35.8359L104.1 56H94.0286L97.0769 37.8132C97.3515 36.0556 97.1249 34.6825 96.3972 33.6939C95.6694 32.7053 94.5023 32.2109 92.8958 32.2109C91.8385 32.2109 90.8636 32.4444 89.9711 32.9112C89.0923 33.3643 88.3577 34.0166 87.7672 34.8679C87.1768 35.7192 86.7855 36.7491 86.5932 37.9574ZM119.162 56.5355C117.157 56.5355 115.427 56.1991 113.971 55.5263C112.529 54.8397 111.472 53.803 110.799 52.4162C110.14 51.0294 109.982 49.2992 110.326 47.2259C110.628 45.4683 111.184 43.9922 111.994 42.7976C112.818 41.5893 113.827 40.6075 115.022 39.8523C116.23 39.0971 117.576 38.5204 119.059 38.1222C120.542 37.724 122.093 37.4562 123.713 37.3189C125.526 37.1541 126.995 36.9756 128.121 36.7834C129.261 36.5911 130.112 36.3234 130.675 35.9801C131.238 35.6231 131.581 35.1288 131.705 34.4972V34.3942C131.87 33.3369 131.643 32.5199 131.025 31.9432C130.407 31.3665 129.48 31.0781 128.245 31.0781C126.926 31.0781 125.801 31.3665 124.867 31.9432C123.933 32.5199 123.281 33.3163 122.91 34.3324L113.683 34.0028C114.26 32.0805 115.248 30.3641 116.649 28.8537C118.049 27.3295 119.828 26.1349 121.983 25.2699C124.153 24.3911 126.659 23.9517 129.501 23.9517C131.506 23.9517 133.318 24.192 134.939 24.6726C136.559 25.1394 137.925 25.826 139.037 26.7322C140.163 27.6248 140.967 28.7232 141.447 30.0277C141.928 31.3321 142.031 32.822 141.756 34.4972L138.152 56H128.677L129.419 51.5923H129.172C128.43 52.6634 127.558 53.5696 126.556 54.3111C125.567 55.0526 124.455 55.6087 123.219 55.9794C121.983 56.3501 120.631 56.5355 119.162 56.5355ZM123.404 49.9446C124.462 49.9446 125.464 49.7249 126.412 49.2855C127.359 48.8461 128.155 48.242 128.801 47.473C129.46 46.6903 129.879 45.7841 130.057 44.7543L130.531 41.7472C130.243 41.8982 129.879 42.0355 129.439 42.1591C129 42.2827 128.533 42.3994 128.039 42.5092C127.544 42.6054 127.036 42.7015 126.515 42.7976C126.007 42.88 125.519 42.9555 125.052 43.0241C124.064 43.1752 123.205 43.4086 122.478 43.7244C121.75 44.0402 121.166 44.4522 120.727 44.9602C120.301 45.4545 120.04 46.045 119.944 46.7315C119.779 47.7614 120.02 48.5578 120.665 49.1207C121.31 49.67 122.224 49.9446 123.404 49.9446ZM144.31 56L149.583 24.3636H159.654L154.382 56H144.31ZM155.329 20.6562C153.901 20.6562 152.741 20.1825 151.848 19.2351C150.956 18.2876 150.606 17.1548 150.798 15.8366C150.99 14.5047 151.663 13.3719 152.816 12.4382C153.97 11.5045 155.254 11.0376 156.668 11.0376C158.096 11.0376 159.243 11.5045 160.108 12.4382C160.986 13.3719 161.33 14.5047 161.137 15.8366C160.973 17.1548 160.314 18.2876 159.16 19.2351C158.02 20.1825 156.743 20.6562 155.329 20.6562ZM173.933 37.9574L170.926 56H160.854L166.127 24.3636H175.704L174.757 30.1719H175.107C176.096 28.2358 177.531 26.7185 179.412 25.62C181.293 24.5078 183.407 23.9517 185.756 23.9517C187.966 23.9517 189.813 24.446 191.296 25.4347C192.779 26.4233 193.829 27.8101 194.447 29.5952C195.065 31.3665 195.168 33.4467 194.756 35.8359L191.378 56H181.307L184.334 37.8132C184.636 36.0694 184.424 34.7031 183.696 33.7145C182.982 32.7121 181.815 32.2109 180.194 32.2109C179.137 32.2109 178.169 32.4444 177.29 32.9112C176.425 33.3643 175.698 34.0166 175.107 34.8679C174.53 35.7192 174.139 36.7491 173.933 37.9574Z" fill="#F8FAFB"/>
<rect x="58.72" y="74.28" width="137.76" height="6.72" rx="2" fill="#8FD7FF"/>
</svg>
