<svg width="211" height="211" viewBox="0 0 211 211" fill="none" xmlns="http://www.w3.org/2000/svg">
<g clip-path="url(#clip0_7_3)">
<path d="M21.5396 56.687C9.66105 56.687 0 66.3485 0 78.227C0 90.1055 9.66105 99.7666 21.5396 99.7666C33.4181 99.7666 43.0791 90.1055 43.0791 78.227C43.0791 66.3485 33.4181 56.687 21.5396 56.687ZM21.5396 91.1827C14.3972 91.1827 8.58392 85.369 8.58392 78.227C8.58392 71.0847 14.3976 65.2714 21.5396 65.2714C28.6819 65.2714 34.4952 71.0851 34.4952 78.227C34.4957 85.369 28.6819 91.1827 21.5396 91.1827Z" fill="white"/>
<path d="M210.31 73.9346H55.9467V82.5185H210.31V73.9346Z" fill="white"/>
<path d="M21.5396 2.823C9.66105 2.823 0 12.4841 0 24.3626C0 36.2411 9.66105 45.9026 21.5396 45.9026C33.4181 45.9026 43.0791 36.2411 43.0791 24.3626C43.0791 12.4841 33.4181 2.823 21.5396 2.823ZM21.5396 37.3187C14.3972 37.3187 8.58392 31.5049 8.58392 24.363C8.58392 17.2206 14.3976 11.4074 21.5396 11.4074C28.6819 11.4074 34.4952 17.2211 34.4952 24.363C34.4957 31.5049 28.6819 37.3187 21.5396 37.3187Z" fill="white"/>
<path d="M210.31 20.0696H55.9467V28.6535H210.31V20.0696Z" fill="white"/>
<path d="M21.5396 110.547C9.66105 110.547 0 120.208 0 132.086C0 143.965 9.66105 153.626 21.5396 153.626C33.4181 153.626 43.0791 143.965 43.0791 132.086C43.0791 120.208 33.4181 110.547 21.5396 110.547ZM21.5396 145.043C14.3972 145.043 8.58392 139.229 8.58392 132.087C8.58392 124.945 14.3976 119.131 21.5396 119.131C28.6819 119.131 34.4952 124.945 34.4952 132.087C34.4957 139.229 28.6819 145.043 21.5396 145.043Z" fill="white"/>
<path d="M210.31 127.774H55.9467V136.358H210.31V127.774Z" fill="white"/>
<path d="M21.5396 164.407C9.66105 164.407 0 174.068 0 185.947C0 197.825 9.66105 207.486 21.5396 207.486C33.4181 207.486 43.0791 197.825 43.0791 185.947C43.0791 174.068 33.4181 164.407 21.5396 164.407ZM21.5396 198.902C14.3972 198.902 8.58392 193.088 8.58392 185.947C8.58392 178.804 14.3976 172.991 21.5396 172.991C28.6819 172.991 34.4952 178.805 34.4952 185.947C34.4957 193.089 28.6819 198.902 21.5396 198.902Z" fill="white"/>
<path d="M210.31 181.656H55.9467V190.24H210.31V181.656Z" fill="white"/>
</g>
<defs>
<clipPath id="clip0_7_3">
<rect width="210.31" height="210.31" fill="white"/>
</clipPath>
</defs>
</svg>
