<svg width="249" height="249" viewBox="0 0 249 249" fill="none" xmlns="http://www.w3.org/2000/svg">
<path d="M40.3545 90.802C37.8666 90.802 35.8495 88.7849 35.8495 86.297C35.8495 83.8091 37.8666 81.7919 40.3545 81.7919H79.7573L58.4163 63.1669C56.5417 61.531 56.3485 58.685 57.9844 56.8103C59.6198 54.9351 62.4658 54.7425 64.341 56.3784L93.46 81.7919H94.9016V41.2933C94.9016 38.8053 96.9187 36.7882 99.4066 36.7882C101.895 36.7882 103.912 38.8053 103.912 41.2933V81.7919H105.351L134.472 56.3784C136.347 54.7425 139.192 54.9357 140.828 56.8103C142.464 58.685 142.271 61.531 140.396 63.1669L119.054 81.7919H158.459C160.947 81.7919 162.964 83.8091 162.964 86.297C162.964 88.7849 160.947 90.802 158.459 90.802H40.3545ZM19.7349 184.098C22.2228 184.098 24.24 182.081 24.24 179.593V68.0093L99.4061 19.5018L174.572 68.0093L174.573 90.9C174.573 93.3879 176.59 95.405 179.078 95.405C181.566 95.405 183.583 93.3879 183.583 90.9L183.582 65.5557C183.582 64.0257 182.806 62.5999 181.52 61.7704L101.849 10.3554C100.362 9.39585 98.4504 9.39585 96.9632 10.3554L17.2921 61.7698C16.0064 62.5993 15.2299 64.0246 15.2299 65.5552V179.593C15.2299 182.081 17.2464 184.098 19.7349 184.098ZM215.231 145.59C217.719 145.59 219.736 143.572 219.736 141.085V139.93C219.736 137.442 217.719 135.424 215.231 135.424C212.743 135.424 210.726 137.442 210.726 139.93V141.085C210.726 143.572 212.743 145.59 215.231 145.59ZM172.933 157.752C170.445 157.752 168.428 159.769 168.428 162.257V163.412C168.428 165.9 170.445 167.917 172.933 167.917C175.421 167.917 177.438 165.9 177.438 163.412V162.257C177.438 159.769 175.421 157.752 172.933 157.752ZM119.397 105.368C121.885 105.368 123.902 107.385 123.902 109.873V137.639C123.902 140.127 121.885 142.144 119.397 142.144H79.4172C76.9293 142.144 74.9121 140.127 74.9121 137.639V109.873C74.9121 107.385 76.9293 105.368 79.4172 105.368H119.397ZM114.892 114.378H83.9222V133.134H114.892V114.378ZM249 234.858C249 237.346 246.983 239.363 244.495 239.363H133.568C133.534 239.364 133.5 239.364 133.466 239.364C133.432 239.364 133.398 239.364 133.364 239.363H4.50504C2.01713 239.363 0 237.346 0 234.858C0 232.37 2.01713 230.353 4.50504 230.353H8.92956V200.306C8.92956 198.706 9.7782 197.225 11.159 196.417L20.1685 191.145C21.5741 190.323 23.3136 190.323 24.7192 191.145L31.4537 195.086L38.1881 191.145C39.5937 190.323 41.3332 190.322 42.7394 191.145L49.4727 195.086L56.2066 191.145C57.6116 190.323 59.3517 190.323 60.7578 191.145L69.7662 196.417C71.1476 197.226 71.9957 198.705 71.9957 200.306V230.353H128.961V166.918H69.8518V179.312C69.8518 181.799 67.8347 183.817 65.3468 183.817C62.8589 183.817 60.8418 181.799 60.8418 179.312V162.413C60.8418 159.925 62.8589 157.907 65.3468 157.907H133.466C135.954 157.907 137.971 159.925 137.971 162.413V230.354H158.985V200.306C158.985 198.706 159.834 197.226 161.215 196.417L170.224 191.145C171.629 190.323 173.369 190.323 174.774 191.145L181.508 195.086L188.242 191.145C189.648 190.323 191.387 190.323 192.793 191.145L195.022 192.45V183.699C191.797 183.018 188.782 181.609 186.19 179.574C182.422 182.533 177.759 184.169 172.853 184.169C160.924 184.169 151.219 174.464 151.219 162.535C151.219 154.561 155.507 147.435 162.242 143.668C161.972 142.297 161.837 140.898 161.837 139.478C161.837 129.47 168.609 121.015 177.913 118.562C178.394 107.055 187.905 97.8423 199.527 97.8423C211.15 97.8423 220.661 107.056 221.142 118.562C230.446 121.015 237.217 129.47 237.217 139.478C237.217 140.898 237.081 142.297 236.812 143.668C243.546 147.435 247.834 154.561 247.834 162.535C247.834 174.464 238.129 184.169 226.201 184.169C221.295 184.169 216.631 182.533 212.863 179.574C210.272 181.609 207.257 183.017 204.031 183.699V192.45L206.261 191.145C207.666 190.323 209.406 190.322 210.812 191.145L217.545 195.086L224.28 191.145C225.685 190.323 227.425 190.322 228.831 191.145L237.839 196.417C239.22 197.225 240.069 198.705 240.069 200.305V230.353H244.493C246.983 230.353 249 232.37 249 234.858ZM26.9486 202.889L22.4436 200.253L17.9391 202.889V230.354H26.9486V202.889ZM44.9671 202.889L40.4632 200.253L35.9587 202.889V230.353H44.9671V202.889ZM62.9856 202.889L58.4817 200.253L53.9766 202.889V230.353H62.985V202.889H62.9856ZM177.004 202.889L172.499 200.253L167.995 202.889V230.353H177.004V202.889ZM195.022 202.889L190.518 200.253L186.013 202.889V230.353H195.022V202.889H195.022ZM204.033 157.919V174.332C206.091 173.547 207.93 172.223 209.359 170.453C210.214 169.393 211.503 168.777 212.864 168.777H212.865C214.227 168.777 215.516 169.394 216.371 170.453C218.784 173.444 222.366 175.158 226.202 175.158C233.163 175.158 238.825 169.495 238.825 162.535C238.825 156.992 235.277 152.151 229.994 150.489C228.781 150.108 227.785 149.231 227.254 148.076C226.721 146.921 226.703 145.595 227.202 144.425C227.87 142.859 228.208 141.195 228.208 139.478C228.208 132.728 222.933 127.189 216.199 126.869C214.911 126.807 213.713 126.198 212.904 125.194C212.096 124.191 211.756 122.889 211.971 121.618C212.091 120.908 212.152 120.187 212.152 119.476C212.152 112.515 206.488 106.852 199.527 106.852C192.567 106.852 186.904 112.515 186.904 119.476C186.904 120.192 186.964 120.911 187.084 121.615C187.299 122.886 186.96 124.188 186.152 125.193C185.344 126.198 184.144 126.807 182.856 126.869C176.122 127.189 170.847 132.728 170.847 139.478C170.847 141.195 171.186 142.859 171.853 144.425C172.352 145.595 172.333 146.921 171.801 148.076C171.269 149.231 170.274 150.108 169.061 150.489C163.779 152.151 160.23 156.991 160.23 162.535C160.23 169.496 165.893 175.158 172.854 175.158C176.689 175.158 180.272 173.444 182.684 170.453C183.539 169.394 184.828 168.777 186.19 168.777C187.552 168.777 188.841 169.393 189.696 170.453C191.125 172.223 192.964 173.547 195.022 174.332V157.919C195.022 155.431 197.039 153.414 199.527 153.414C202.015 153.414 204.033 155.43 204.033 157.919ZM213.041 202.889L208.538 200.253L204.033 202.889V230.353H213.042V202.889H213.041ZM231.06 202.889L226.556 200.253L222.051 202.889V230.353H231.06V202.889Z" fill="white"/>
</svg>
