<svg width="284" height="275" viewBox="0 0 284 275" fill="none" xmlns="http://www.w3.org/2000/svg">
<g clip-path="url(#clip0_8_236)">
<path d="M234.147 151.25V58.1991H222.722V151.25H182.443V93.893H170.96V151.25H149.666L112.042 68.7502H93.3452L87.9785 34.2349H48.2769L42.8526 68.7502H24.7906V151.25H0.727295L21.7899 240.765H214.874L283.486 151.25H234.147ZM58.4908 45.3471H77.7646L81.4001 68.7502H54.9131L58.4908 45.3471ZM36.8511 80.4798H104.194L116.254 106.801H36.8511V80.4798ZM121.39 117.913L136.682 151.25H36.8511V117.913H121.39ZM209.507 229.036H31.4268L15.1538 162.362H260.577L209.507 229.036Z" fill="white"/>
<path d="M58.4908 178.75H45.2762V189.862H58.4908V178.75Z" fill="white"/>
<path d="M89.7674 178.75H76.5528V189.862H89.7674V178.75Z" fill="white"/>
<path d="M121.044 178.75H107.829V189.862H121.044V178.75Z" fill="white"/>
<path d="M152.321 178.75H139.106V189.862H152.321V178.75Z" fill="white"/>
<path d="M183.597 178.75H170.382V189.862H183.597V178.75Z" fill="white"/>
<path d="M214.874 178.75H201.659V189.862H214.874V178.75Z" fill="white"/>
</g>
<defs>
<clipPath id="clip0_8_236">
<rect width="282.759" height="275" fill="white" transform="translate(0.727295)"/>
</clipPath>
</defs>
</svg>
